<svg id="Capa_1" data-name="Capa 1" xmlns="http://www.w3.org/2000/svg" viewBox="0 0 187.89 96"><defs><style>.cls-1{fill:#fff;}.cls-2{isolation:isolate;}.cls-3{fill:#008dcf;}</style></defs><rect class="cls-1" x="15.55" y="71.56" width="153.99" height="15.1"/><g class="cls-2"><g class="cls-2"><path class="cls-3" d="M22.58,81.81a3,3,0,0,0,.4,1.44,2.54,2.54,0,0,0,2.34,1,3.92,3.92,0,0,0,1.36-.22,1.61,1.61,0,0,0,1.2-1.59,1.37,1.37,0,0,0-.51-1.21,4.72,4.72,0,0,0-1.59-.62l-1.33-.33a5.55,5.55,0,0,1-1.85-.69,2.22,2.22,0,0,1-.94-2,3.07,3.07,0,0,1,.92-2.31,3.5,3.5,0,0,1,2.6-.91,4.34,4.34,0,0,1,2.63.8,2.94,2.94,0,0,1,1.08,2.54H27.64a2.76,2.76,0,0,0-.43-1.29,2.41,2.41,0,0,0-2.07-.82,2.31,2.31,0,0,0-1.7.52,1.75,1.75,0,0,0-.52,1.23,1.23,1.23,0,0,0,.61,1.13,8.64,8.64,0,0,0,1.79.57l1.38.33a4.1,4.1,0,0,1,1.54.66,2.57,2.57,0,0,1,.94,2.14A2.7,2.7,0,0,1,28,84.74a5.11,5.11,0,0,1-2.77.75,4,4,0,0,1-2.87-1,3.48,3.48,0,0,1-1-2.68Z"/><path class="cls-3" d="M34.83,77.76a2.84,2.84,0,0,1,1.09,1,3.5,3.5,0,0,1,.49,1.35,9.63,9.63,0,0,1,.1,1.68H31.25a3.41,3.41,0,0,0,.52,1.86,1.68,1.68,0,0,0,1.49.7,1.88,1.88,0,0,0,1.51-.66,2.23,2.23,0,0,0,.46-.89h1.18a2.71,2.71,0,0,1-.31.94,3.46,3.46,0,0,1-.59.84,2.76,2.76,0,0,1-1.36.77,3.73,3.73,0,0,1-1,.12,3,3,0,0,1-2.27-1A4.2,4.2,0,0,1,30,81.51a4.53,4.53,0,0,1,.94-3,3,3,0,0,1,2.45-1.15A3.16,3.16,0,0,1,34.83,77.76Zm.44,3a3.43,3.43,0,0,0-.34-1.33,1.72,1.72,0,0,0-1.65-.93,1.78,1.78,0,0,0-1.4.64,2.48,2.48,0,0,0-.59,1.62Z"/><path class="cls-3" d="M37.68,77.55h1.15v1.32a2.78,2.78,0,0,1,.69-.94,1.74,1.74,0,0,1,1.27-.55h.11l.28,0v1.35l-.2,0h-.2a1.67,1.67,0,0,0-1.4.63,2.22,2.22,0,0,0-.49,1.43v4.39H37.68Z"/><path class="cls-3" d="M42.47,77.55l1.91,6.22,2-6.22h1.32L45,85.18H43.71l-2.64-7.63Z"/><path class="cls-3" d="M48.4,74.72h1.22v1.45H48.4Zm0,2.87h1.22v7.59H48.4Z"/><path class="cls-3" d="M51.1,77.55h1.2v1.09a3.89,3.89,0,0,1,.77-.82,2.26,2.26,0,0,1,1.36-.44,2,2,0,0,1,1.38.45,2.35,2.35,0,0,1,.53.76,2.64,2.64,0,0,1,.95-.91,2.48,2.48,0,0,1,1.22-.3,2,2,0,0,1,2,1.11,3.81,3.81,0,0,1,.28,1.61v5.08H59.51v-5.3a1.28,1.28,0,0,0-.36-1,1.36,1.36,0,0,0-.88-.28,1.67,1.67,0,0,0-1.22.51,2.3,2.3,0,0,0-.51,1.68v4.44H55.31v-5a2.87,2.87,0,0,0-.17-1.13,1.05,1.05,0,0,0-1-.53,1.7,1.7,0,0,0-1.24.56,2.88,2.88,0,0,0-.56,2v4H51.1Z"/><path class="cls-3" d="M67.43,78.31a4,4,0,0,1,1,2.9,5.2,5.2,0,0,1-.84,3.05,3,3,0,0,1-2.62,1.2,2.89,2.89,0,0,1-2.36-1.06,4.4,4.4,0,0,1-.87-2.86,4.76,4.76,0,0,1,.92-3.07,3,3,0,0,1,2.47-1.14A3.16,3.16,0,0,1,67.43,78.31Zm-.75,5.08a5,5,0,0,0,.45-2.15,4.13,4.13,0,0,0-.32-1.74,1.8,1.8,0,0,0-1.76-1,1.72,1.72,0,0,0-1.61.9,4.42,4.42,0,0,0-.5,2.16,3.88,3.88,0,0,0,.5,2,1.75,1.75,0,0,0,1.6.81A1.63,1.63,0,0,0,66.68,83.39Z"/><path class="cls-3" d="M70.2,82.79a1.58,1.58,0,0,0,1.88,1.6,2.19,2.19,0,0,0,1.18-.31,1,1,0,0,0,.51-1,.84.84,0,0,0-.41-.75,4.39,4.39,0,0,0-1-.37l-1-.25A4.73,4.73,0,0,1,70,81.22a1.65,1.65,0,0,1-.78-1.44A2.26,2.26,0,0,1,70,78a2.86,2.86,0,0,1,2-.67,2.68,2.68,0,0,1,2.34,1,2.35,2.35,0,0,1,.43,1.39H73.58a1.49,1.49,0,0,0-.29-.79,1.75,1.75,0,0,0-1.44-.51,1.6,1.6,0,0,0-1,.28.86.86,0,0,0-.35.73.91.91,0,0,0,.46.8,2.64,2.64,0,0,0,.79.31l.8.21a5.92,5.92,0,0,1,1.74.65A1.75,1.75,0,0,1,75,83a2.45,2.45,0,0,1-.72,1.76,3,3,0,0,1-2.22.74,2.86,2.86,0,0,1-2.27-.78A3,3,0,0,1,69,82.79Z"/><path class="cls-3" d="M84.21,78a3.11,3.11,0,0,1,.92,2.16H84A2.3,2.3,0,0,0,83.46,79a1.45,1.45,0,0,0-1.22-.47,1.7,1.7,0,0,0-1.65,1.2,4.86,4.86,0,0,0-.32,1.91,3.8,3.8,0,0,0,.45,1.93,1.54,1.54,0,0,0,1.44.79,1.52,1.52,0,0,0,1.19-.49,2.77,2.77,0,0,0,.6-1.34h1.18a3.4,3.4,0,0,1-1,2.22,3,3,0,0,1-2.06.71,2.68,2.68,0,0,1-2.24-1.1A4.35,4.35,0,0,1,79,81.58a4.82,4.82,0,0,1,.92-3.13,2.88,2.88,0,0,1,2.34-1.12A3,3,0,0,1,84.21,78Z"/><path class="cls-3" d="M91.23,78.31a4,4,0,0,1,1,2.9,5.14,5.14,0,0,1-.85,3.05,3,3,0,0,1-2.62,1.2,2.87,2.87,0,0,1-2.35-1.06,4.4,4.4,0,0,1-.87-2.86,4.7,4.7,0,0,1,.92-3.07,3,3,0,0,1,2.46-1.14A3.17,3.17,0,0,1,91.23,78.31Zm-.75,5.08a5,5,0,0,0,.45-2.15,4,4,0,0,0-.33-1.74,1.78,1.78,0,0,0-1.75-1,1.71,1.71,0,0,0-1.61.9,4.42,4.42,0,0,0-.5,2.16,3.88,3.88,0,0,0,.5,2,1.75,1.75,0,0,0,1.6.81A1.64,1.64,0,0,0,90.48,83.39Z"/><path class="cls-3" d="M93.28,77.55h1.14v1.09a3.33,3.33,0,0,1,1.08-1,2.79,2.79,0,0,1,1.27-.29,2.05,2.05,0,0,1,2.06,1.13,4.23,4.23,0,0,1,.3,1.78v4.89H97.9V80.37a2.72,2.72,0,0,0-.19-1.12,1.17,1.17,0,0,0-1.17-.71,2.25,2.25,0,0,0-.7.09,1.75,1.75,0,0,0-.87.63,1.94,1.94,0,0,0-.4.78,5.53,5.53,0,0,0-.09,1.15v4h-1.2Z"/></g><g class="cls-2"><path class="cls-3" d="M106,74.48A5.84,5.84,0,0,1,109.9,73c1.95,0,3.24.66,3.86,2a3.7,3.7,0,0,1,.34,2.22h-2.42a2.74,2.74,0,0,0-.34-1.29,2,2,0,0,0-1.79-.77,3,3,0,0,0-2.31,1.09,6.43,6.43,0,0,0-1.4,3.1,4.23,4.23,0,0,0,.18,3,2,2,0,0,0,1.84,1,2.86,2.86,0,0,0,2.12-.86,5,5,0,0,0,.9-1.38h2.4A7.09,7.09,0,0,1,111,84.26a5.62,5.62,0,0,1-3.57,1.22,4,4,0,0,1-3.59-1.65,5.9,5.9,0,0,1-.49-4.54A8.3,8.3,0,0,1,106,74.48Z"/><path class="cls-3" d="M117.49,85.45a3.19,3.19,0,0,1-3-1.37,4.59,4.59,0,0,1-.39-3.32,6.56,6.56,0,0,1,1.76-3.31,4.83,4.83,0,0,1,3.59-1.39,3.16,3.16,0,0,1,3,1.39,4.69,4.69,0,0,1,.4,3.31,6.47,6.47,0,0,1-1.78,3.32A4.85,4.85,0,0,1,117.49,85.45Zm3-4.69a3.11,3.11,0,0,0-.11-2A1.42,1.42,0,0,0,119,78a2.21,2.21,0,0,0-1.66.72,4.22,4.22,0,0,0-1,2,3.11,3.11,0,0,0,.11,2,1.4,1.4,0,0,0,1.36.72,2.18,2.18,0,0,0,1.66-.72A4.23,4.23,0,0,0,120.5,80.76Z"/><path class="cls-3" d="M130,76.15l-.48,2.35-.37,0h-.27a2.34,2.34,0,0,0-2,.91,4.34,4.34,0,0,0-.58,1.57l-.86,4.21h-2.26l1.82-8.81h2.14l-.32,1.53a7.1,7.1,0,0,1,1.15-1.2,2.91,2.91,0,0,1,1.75-.54h.11Z"/><path class="cls-3" d="M133.48,79.79a3.67,3.67,0,0,0,.93-.2.93.93,0,0,0,.62-.66c.07-.36,0-.61-.22-.74a1.93,1.93,0,0,0-1-.21,1.67,1.67,0,0,0-1.21.4,2.41,2.41,0,0,0-.48.81h-2.16a3.93,3.93,0,0,1,4.32-3.06,4.63,4.63,0,0,1,2.38.57c.65.39.86,1.11.64,2.17l-.84,4c-.05.28-.12.62-.19,1a1.28,1.28,0,0,0,0,.61.59.59,0,0,0,.27.27l-.06.34H134a2.28,2.28,0,0,1,0-.51,3.74,3.74,0,0,1,.05-.53,6.28,6.28,0,0,1-1.25.88,3.66,3.66,0,0,1-1.73.43,2.32,2.32,0,0,1-1.79-.68,2.1,2.1,0,0,1-.35-1.94,3.27,3.27,0,0,1,1.7-2.35,6.31,6.31,0,0,1,2.09-.56Zm1.14,1.07a2.62,2.62,0,0,1-.48.23,5.17,5.17,0,0,1-.62.15l-.52.1a3.68,3.68,0,0,0-1.09.32,1.32,1.32,0,0,0-.71,1,.91.91,0,0,0,.13.86,1,1,0,0,0,.72.26,2.71,2.71,0,0,0,1.43-.44,2.39,2.39,0,0,0,1-1.59Z"/><path class="cls-3" d="M138.51,78.21l.38-1.87h7l-.39,1.91-5.39,5h4.5l-.38,1.89h-7.4l.37-1.8,5.45-5.14Z"/><path class="cls-3" d="M149,85.45a3.18,3.18,0,0,1-3-1.37,4.59,4.59,0,0,1-.4-3.32,6.51,6.51,0,0,1,1.77-3.31A4.81,4.81,0,0,1,151,76.06a3.15,3.15,0,0,1,3,1.39,4.59,4.59,0,0,1,.4,3.31,6.45,6.45,0,0,1-1.77,3.32A4.87,4.87,0,0,1,149,85.45Zm3-4.69a3.06,3.06,0,0,0-.1-2,1.42,1.42,0,0,0-1.37-.72,2.2,2.2,0,0,0-1.66.72,4.13,4.13,0,0,0-1,2,3.05,3.05,0,0,0,.11,2,1.4,1.4,0,0,0,1.36.72,2.18,2.18,0,0,0,1.66-.72A4.13,4.13,0,0,0,152,80.76Zm2.31-8-2.89,2.41H149.8l2-2.41Z"/><path class="cls-3" d="M163.65,79.22l-1.23,5.93h-2.3l1.1-5.36a2.2,2.2,0,0,0,0-1.07c-.12-.45-.49-.68-1.11-.68a2,2,0,0,0-1.77,1,4,4,0,0,0-.5,1.34l-1,4.77h-2.23l1.81-8.79h2.17l-.27,1.28a5.29,5.29,0,0,1,1-1,3.35,3.35,0,0,1,1.86-.53,2.72,2.72,0,0,1,2,.71A2.6,2.6,0,0,1,163.65,79.22Z"/></g></g><path class="cls-1" d="M26.2,12.25H24.54V9.75h6.34v2.5H29.22v10.6h1.66v2.5H24.54v-2.5H26.2v-4h-6v4h1.67v2.5H15.49v-2.5h1.67V12.25H15.49V9.75h6.35v2.5H20.17V16h6V12.25Z"/><path class="cls-1" d="M32.44,17.55a8.17,8.17,0,1,1,8.11,8.11A8.16,8.16,0,0,1,32.44,17.55Zm13.31-.1a5.11,5.11,0,0,0-5.09-5.1,5.2,5.2,0,0,0-5.2,5.1,5.05,5.05,0,0,0,5.09,5.19A5.14,5.14,0,0,0,45.75,17.45Z"/><path class="cls-1" d="M53.24,20.67a2.26,2.26,0,0,0,2.28,2.39,2.16,2.16,0,0,0,2.29-2.18c0-1.56-1.45-2-2.7-2.29a7.86,7.86,0,0,1-3-1.35,4,4,0,0,1-1.66-3.43,4.55,4.55,0,0,1,4.68-4.47,3.4,3.4,0,0,1,2.81,1.24V9.75H60.2v4.16H57.5a2,2,0,0,0-2.08-2.08,1.94,1.94,0,0,0-2.08,2c0,1.56,1.35,1.87,2.6,2.18a7.84,7.84,0,0,1,3.33,1.46,4.08,4.08,0,0,1,1.56,3.32,4.76,4.76,0,0,1-4.89,4.89,3.63,3.63,0,0,1-3-1.35v1H50.53V20.67Z"/><path class="cls-1" d="M68.83,9.75a7.3,7.3,0,0,1,4.16,1,4.76,4.76,0,0,1,1.87,4.06,5.23,5.23,0,0,1-1.45,3.64,5.1,5.1,0,0,1-4,1.45H67.27v2.91h1.67v2.5H62.59v-2.5h1.77V12.25H62.7V9.75ZM69,17.24a2.61,2.61,0,0,0,2-.52A2.38,2.38,0,0,0,72,14.85,2.54,2.54,0,0,0,71,13a3.13,3.13,0,0,0-2.08-.52H67.27v4.79Z"/><path class="cls-1" d="M81.31,22.85H83v2.5H76.63v-2.5H78.3V12.25H76.63V9.75H83v2.5H81.31v10.6Z"/><path class="cls-1" d="M92.44,22.85H94.1v2.5H87.76v-2.5h1.66V12.35H87.24v2.29H84.85V9.75H97.11v4.89H94.72V12.35H92.44v10.5Z"/><path class="cls-1" d="M107.3,23.16h1.77l-1-2.39h-5.51l-.93,2.29h1.66v2.18H96.91V22.85h1.76l4.58-10.6h-1.77V9.75h5.2l5.51,13.1h1.66v2.5H107.3V23.16Zm-2-10h0l-2,5.31h4Z"/><path class="cls-1" d="M115.21,22.85h1.66V12.25h-1.66V9.75h6.34v2.5h-1.66V22.64h3.74V20.56h3v4.68H115.21Z"/><path class="cls-1" d="M30,30.13v2.5H28.28v7.69a5.21,5.21,0,0,1-1.45,4.06,5.65,5.65,0,0,1-4.16,1.55,5.48,5.48,0,0,1-4.06-1.45,5.6,5.6,0,0,1-1.56-4.37V32.42H15.49V30.13h6v2.5H20.17V40a3.87,3.87,0,0,0,.42,2.18,2.58,2.58,0,0,0,2.18,1.15,2.44,2.44,0,0,0,2-.94,3.72,3.72,0,0,0,.52-2.29V32.73H23.92v-2.6Z"/><path class="cls-1" d="M46.37,45.73h-2.8l-7.28-10.3v7.8H38v2.5H31.61v-2.5h1.66V32.63H31.61v-2.5H36l7.38,10.4v-7.9H41.7v-2.5H48v2.5H46.37v13.1Z"/><path class="cls-1" d="M54.69,43.23h1.67v2.5H50v-2.5h1.67V32.63H50v-2.5h6.35v2.5H54.69Z"/><path class="cls-1" d="M67.38,45.73H64.15l-4.47-13.1H58v-2.5h6.34v2.5H62.91l3.12,9,3.32-9H67.9v-2.5h5.82v2.5H72.06Z"/><path class="cls-1" d="M75.28,43.23h1.66V32.63H75.28v-2.5H86.82v4.68h-3V32.73H80v3.85h4.57v2.28H80V43h4V40.94h3v4.79H75.28Z"/><path class="cls-1" d="M90.56,32.63H88.9v-2.5h7c1.56,0,2.91.1,4,1.25a5.16,5.16,0,0,1,1.87,4.05A4.45,4.45,0,0,1,98,40.11l2.39,3.12h1.77v2.5H98.47l-5-7v4.47h1.35v2.5h-6v-2.5h1.66l.1-10.6Zm4.58,5.82a3.86,3.86,0,0,0,2.6-.63,2.66,2.66,0,0,0,1-2.28,2.62,2.62,0,0,0-1-2.19,3.13,3.13,0,0,0-2.18-.52H93.48v5.62Z"/><path class="cls-1" d="M106.47,41.15a2.26,2.26,0,0,0,2.29,2.39,2.16,2.16,0,0,0,2.29-2.18c0-1.56-1.46-2-2.71-2.29a7.82,7.82,0,0,1-3-1.35,4,4,0,0,1-1.66-3.43,4.54,4.54,0,0,1,4.67-4.47,3.38,3.38,0,0,1,2.81,1.25v-.94h2.29v4.16h-2.7a2,2,0,0,0-2.08-2.08,1.94,1.94,0,0,0-2.08,2c0,1.56,1.35,1.87,2.6,2.18a8,8,0,0,1,3.32,1.45,4.11,4.11,0,0,1,1.56,3.33A4.75,4.75,0,0,1,109.18,46a3.63,3.63,0,0,1-3-1.35v1h-2.39V41.05l2.7.1Z"/><path class="cls-1" d="M120.61,43.23h1.67v2.5h-6.35v-2.5h1.67V32.63h-1.67v-2.5h6.35v2.5h-1.67Z"/><path class="cls-1" d="M124.25,43.23h1.67V32.63h-1.67v-2.5h7.38A6.64,6.64,0,0,1,137,32.21a8.61,8.61,0,0,1,.21,11.23,7,7,0,0,1-5.72,2.29h-7.38l.1-2.5Zm4.68-.21h2.29a4.77,4.77,0,0,0,3.85-1.35A5.71,5.71,0,0,0,136.31,38a6.05,6.05,0,0,0-1.35-4,4.62,4.62,0,0,0-3.64-1.25h-2.39V43Z"/><path class="cls-1" d="M149.52,43.54h1.77l-.94-2.28h-5.51l-.94,2.28h1.67v2.19h-6.34v-2.5h1.66l4.57-10.6H143.7v-2.5h5.19l5.41,13.1H156v2.5h-6.56l.11-2.19Zm-2-10h0l-2,5.3h4Z"/><path class="cls-1" d="M157.42,43.23h1.66V32.63h-1.66v-2.5h7.38a6.64,6.64,0,0,1,5.41,2.08,8.64,8.64,0,0,1,.21,11.23,7,7,0,0,1-5.72,2.29h-7.38l.1-2.5ZM162.1,43h2.29a4.75,4.75,0,0,0,3.84-1.35A5.66,5.66,0,0,0,169.48,38a6.05,6.05,0,0,0-1.35-4,4.62,4.62,0,0,0-3.64-1.25H162.1V43Z"/><path class="cls-1" d="M15.49,63.71h1.67V53.11H15.49v-2.5h7.39a6.63,6.63,0,0,1,5.4,2.08,8.61,8.61,0,0,1,.21,11.23,7,7,0,0,1-5.72,2.29H15.49v-2.5Zm4.68-.2h2.29a4.8,4.8,0,0,0,3.85-1.35,5.75,5.75,0,0,0,1.24-3.64,6.06,6.06,0,0,0-1.35-4c-1-1.14-2.18-1.24-3.64-1.24H20.17V63.51Z"/><path class="cls-1" d="M32.55,63.71h1.66V53.11H32.55v-2.5H44.09v4.68h-3V53.21h-4v3.95H41.7v2.29H37.12v4.16h4V61.53h3v4.68H32.55Z"/><path class="cls-1" d="M46.06,63.71h1.67V53.11H46.06v-2.5h6.35v2.5H50.74v10.4h3.74V61.43h3v4.68H46.06Z"/><path class="cls-1" d="M81.41,66.21h-2.8L71.22,55.92v7.79h1.67v2.5H66.55v-2.5h1.66V53.11H66.55v-2.5h4.36L78.3,61v-7.9H76.63v-2.5h6.45v2.5H81.41v13.1Z"/><path class="cls-1" d="M85,58.41a8.16,8.16,0,1,1,8.11,8.11A8.16,8.16,0,0,1,85,58.41Zm13.31-.1a5.11,5.11,0,0,0-5.1-5.1,5.2,5.2,0,0,0-5.2,5.1,5.07,5.07,0,0,0,5.1,5.2A5.22,5.22,0,0,0,98.26,58.31Z"/><path class="cls-1" d="M104.5,53.11h-1.67v-2.5h7c1.56,0,2.91.11,4,1.25a5.19,5.19,0,0,1,1.88,4.06,4.47,4.47,0,0,1-3.85,4.68l2.39,3.11H116v2.5H112.4l-4.89-7v4.47h1.35v2.5h-6v-2.5h1.67V53.11Zm4.68,5.72a3.88,3.88,0,0,0,2.6-.63,2.69,2.69,0,0,0,1-2.28,2.64,2.64,0,0,0-1-2.19,3.16,3.16,0,0,0-2.19-.52h-2.08v5.62Z"/><path class="cls-1" d="M125.6,63.71h1.67v2.5h-6.34v-2.5h1.66V53.21H120.3V55.5h-2.39V50.61h12.27V55.5h-2.39V53.21H125.5l.1,10.5Z"/><path class="cls-1" d="M132,63.71h1.66V53.11H132v-2.5h11.54v4.68h-3V53.21h-3.95v3.95h4.58v2.29h-4.58v4.16h3.95V61.53h3v4.68H132v-2.5Z"/></svg>